<?xml version="1.0" standalone="no"?>
<!DOCTYPE svg PUBLIC "-//W3C//DTD SVG 20010904//EN"
 "http://www.w3.org/TR/2001/REC-SVG-20010904/DTD/svg10.dtd">
<svg version="1.0" xmlns="http://www.w3.org/2000/svg"
 width="1254.000000pt" height="1254.000000pt" viewBox="0 0 1254.000000 1254.000000"
 preserveAspectRatio="xMidYMid meet">

<g transform="translate(0.000000,1254.000000) scale(0.100000,-0.100000)"
fill="#000000" stroke="none">
<path d="M0 6270 l0 -6270 6270 0 6270 0 0 6270 0 6270 -6270 0 -6270 0 0
-6270z m6509 4094 l31 -6 0 -1854 0 -1854 740 0 740 0 2 598 3 597 240 0 240
0 0 -1973 0 -1973 -35 -30 c-44 -36 -353 -258 -401 -287 l-36 -22 -6 512 c-4
281 -7 871 -7 1310 l0 798 -740 0 -740 0 0 -603 0 -604 -226 -219 c-125 -120
-230 -220 -235 -222 -5 -2 -6 1248 -3 2779 l6 2782 -93 -7 c-372 -28 -790
-130 -1139 -277 -674 -285 -1278 -796 -1677 -1419 -141 -220 -227 -390 -331
-651 -81 -201 -145 -427 -191 -671 -92 -482 -78 -1029 40 -1517 21 -90 37
-166 35 -168 -2 -3 -7 9 -11 26 -5 25 -9 29 -19 18 -8 -7 -20 -26 -29 -43 -12
-23 -22 -29 -44 -28 -32 2 -63 -21 -63 -47 0 -22 -16 -33 -24 -17 -4 7 -4 -4
-2 -25 3 -25 1 -35 -6 -31 -11 7 -7 -21 9 -62 4 -11 3 -15 -4 -11 -12 8 -51
128 -87 274 -26 102 -32 142 -19 130 3 -4 17 0 30 8 13 9 23 11 23 5 0 -5 7
-10 15 -10 8 0 15 5 15 11 0 5 -5 7 -12 3 -6 -4 -8 -3 -4 4 3 5 3 12 -1 15 -5
2 -2 2 5 1 18 -5 43 7 36 17 -3 5 5 9 18 9 17 0 20 2 9 9 -8 5 -21 7 -29 3 -9
-3 -13 -1 -9 5 7 11 -19 53 -33 53 -18 0 -60 43 -60 61 0 10 -6 20 -12 23 -7
3 -4 4 7 3 12 -1 19 3 18 11 -2 6 4 12 12 12 14 0 20 14 15 35 -1 6 -3 16 -3
23 0 6 -4 12 -9 12 -5 0 -7 4 -4 9 7 10 -22 24 -34 16 -5 -3 -7 6 -5 20 1 14
-1 28 -5 30 -4 3 -6 19 -4 36 2 18 1 29 -3 26 -3 -4 -15 10 -25 30 l-18 38 5
-104 c3 -58 3 -103 1 -100 -13 13 -36 360 -36 543 0 453 59 813 206 1252 290
868 914 1645 1712 2131 133 82 402 217 547 276 350 143 742 237 1150 276 108
10 519 14 564 5z m626 -90 c511 -112 985 -326 1429 -647 244 -176 452 -368
692 -637 70 -78 208 -261 285 -375 183 -275 319 -545 440 -878 40 -110 47
-136 28 -104 -11 19 -35 23 -41 6 -5 -14 -36 -1 -48 20 -6 13 -1 25 21 49 25
27 28 34 18 55 -11 25 -35 31 -56 15 -7 -6 -20 -8 -28 -4 -8 3 -30 -3 -47 -14
-17 -10 -35 -17 -40 -14 -4 3 -8 -2 -8 -10 0 -9 -4 -16 -10 -16 -5 0 -7 7 -4
15 8 19 -19 20 -35 1 -9 -11 -4 -36 24 -116 19 -56 35 -107 34 -113 0 -7 -19
42 -43 108 -249 699 -664 1273 -1244 1719 -56 43 -99 83 -95 89 3 6 1 7 -5 3
-6 -4 -64 29 -129 72 -345 230 -735 400 -1138 497 -77 19 -170 39 -207 45
l-68 12 0 138 0 137 77 -13 c43 -8 132 -26 198 -40z m-1439 -4076 c-4 -1354
-9 -2464 -12 -2467 -4 -5 -9 301 -5 357 1 19 -2 31 -7 28 -6 -3 -13 11 -17 31
-6 34 -8 36 -20 20 -12 -17 -14 -17 -36 5 -13 13 -22 22 -20 21 2 -2 10 5 17
15 9 10 17 13 21 7 11 -13 33 -17 33 -6 0 5 -9 13 -20 16 -11 3 -20 12 -20 18
0 7 -5 4 -11 -6 -6 -9 -15 -15 -20 -11 -5 3 -17 0 -25 -7 -12 -10 -12 -14 -2
-20 8 -6 -1 -9 -24 -9 -21 0 -38 5 -38 11 0 6 -7 4 -15 -5 -8 -8 -15 -19 -15
-25 0 -6 -5 -11 -11 -11 -5 0 -7 -4 -4 -10 3 -6 -1 -7 -9 -4 -9 3 -16 1 -16
-5 0 -6 -5 -11 -12 -11 -6 0 -3 10 8 22 l19 22 -26 -16 c-20 -13 -29 -14 -38
-5 -14 14 -15 37 -1 37 5 0 9 -3 9 -7 -3 -20 2 -23 17 -8 13 12 14 18 4 30
-11 13 -17 11 -41 -15 -18 -19 -35 -27 -45 -23 -11 4 -15 1 -12 -13 2 -15 -3
-19 -24 -17 -29 2 -38 -11 -15 -20 6 -3 2 -6 -10 -6 -23 -1 -23 1 -25 147 -2
81 -5 -125 -8 -458 -4 -476 -6 -339 -8 648 l-2 1252 -294 0 -294 0 -154 -96
c-84 -53 -461 -302 -837 -553 -377 -251 -699 -464 -715 -474 -30 -18 -30 -18
-11 0 11 10 19 27 17 39 -4 30 24 51 49 36 10 -7 19 -8 19 -3 0 5 12 12 27 16
49 12 73 45 32 45 -11 0 -17 4 -14 10 3 6 2 10 -4 10 -5 0 -12 -6 -15 -12 -4
-9 -10 -6 -22 9 -10 15 -27 23 -45 23 -24 0 -29 4 -29 26 0 14 -5 34 -10 45
-6 11 -7 19 -2 19 6 0 17 11 25 24 15 22 15 24 1 22 -9 -1 -25 -18 -37 -36
-12 -19 -16 -31 -9 -26 6 4 12 2 12 -3 0 -6 -7 -11 -14 -11 -8 0 -42 -39 -76
-87 -46 -66 -57 -89 -46 -91 10 -2 16 -14 16 -31 0 -37 -8 -43 -35 -25 -19 13
-23 12 -37 -3 -16 -19 -38 -58 -38 -68 0 -3 16 -13 35 -21 36 -15 48 -11 104
33 3 2 -4 10 -15 17 -10 8 -15 18 -11 22 4 4 15 1 24 -8 12 -13 22 -14 42 -7
15 6 22 6 16 1 -19 -17 -230 -155 -217 -141 17 18 15 38 -4 46 -11 4 -24 -3
-36 -18 -44 -54 10 29 220 341 120 179 224 325 231 325 7 0 28 21 48 48 19 26
33 47 30 47 -3 0 -20 -20 -38 -45 -18 -25 -34 -43 -37 -40 -7 7 69 105 78 100
5 -3 12 0 16 6 4 8 3 9 -4 5 -25 -15 -9 10 104 165 68 94 120 157 126 153 7
-4 8 -2 4 4 -4 7 57 99 145 219 84 115 264 359 399 543 1037 1411 1747 2360
1767 2360 4 0 3 -1108 -1 -2462z m4081 1440 c-9 -6 -9 -8 0 -8 7 0 10 -7 6
-15 -7 -20 -11 -15 -22 23 -9 29 -8 30 9 19 14 -8 16 -13 7 -19z m277 -129
c40 -141 40 -142 16 -129 -22 12 -26 26 -8 32 9 3 9 12 -1 36 -7 18 -17 32
-22 32 -4 0 -8 17 -7 38 0 22 -3 50 -7 63 -4 13 -5 21 -1 18 3 -3 17 -44 30
-90z m-220 -146 c14 -56 26 -108 25 -115 0 -11 -68 228 -68 242 0 22 22 -44
43 -127z m22 95 c-1 -32 -19 -51 -28 -29 -10 24 -9 43 1 36 5 -3 12 -1 16 5 9
15 12 12 11 -12z m11 -250 c-3 -8 -6 -5 -6 6 -1 11 2 17 5 13 3 -3 4 -12 1
-19z m271 -48 c1 -23 0 -23 -8 -5 -5 11 -8 34 -8 50 0 29 0 29 8 5 4 -14 8
-36 8 -50z m-244 -66 c5 -48 5 -47 -9 11 -16 67 -18 91 -5 59 5 -12 11 -43 14
-70z m13 34 c-3 -8 -6 -5 -6 6 -1 11 2 17 5 13 3 -3 4 -12 1 -19z m0 -120 c-3
-8 -6 -5 -6 6 -1 11 2 17 5 13 3 -3 4 -12 1 -19z m280 -170 c-2 -13 -4 -5 -4
17 -1 22 1 32 4 23 2 -10 2 -28 0 -40z m-240 -170 c-3 -8 -6 -5 -6 6 -1 11 2
17 5 13 3 -3 4 -12 1 -19z m10 -180 c-3 -7 -5 -2 -5 12 0 14 2 19 5 13 2 -7 2
-19 0 -25z m-7564 -738 l6 -75 -14 70 c-8 39 -14 84 -14 100 1 29 1 29 8 5 5
-14 11 -59 14 -100z m25 -155 c0 -16 -2 -15 -8 5 -4 14 -8 36 -8 50 0 22 1 22
8 -5 4 -16 8 -39 8 -50z m334 -340 c-7 -15 -16 -24 -21 -20 -5 3 -13 0 -17 -6
-4 -8 -3 -9 4 -5 7 4 12 5 12 2 0 -7 -110 -178 -123 -191 -16 -16 13 36 53 95
52 78 57 88 39 73 -8 -6 -26 -11 -40 -10 -29 2 -31 16 -8 62 12 25 20 30 49
29 26 0 35 -5 34 -17 -1 -9 3 -14 8 -11 9 6 8 26 -7 94 -2 14 3 4 12 -22 13
-38 14 -53 5 -73z m-162 -217 c0 -4 -4 -8 -10 -8 -5 0 -10 4 -10 9 0 5 -3 18
-6 28 -5 16 -4 16 10 -1 9 -11 16 -23 16 -28z m350 -368 c0 -5 -4 -10 -10 -10
-5 0 -10 5 -10 10 0 6 5 10 10 10 6 0 10 -4 10 -10z m-373 -309 c-5 -15 -19
-34 -29 -40 -15 -9 -13 -3 8 29 32 47 36 50 21 11z m752 -145 c9 -11 11 -17 5
-13 -9 5 -60 70 -102 127 -1 2 -13 -1 -25 -8 -20 -12 -20 -11 2 8 l23 20 40
-57 c22 -32 48 -67 57 -77z m-256 -75 c27 -46 14 -38 -18 12 -16 23 -22 37
-14 30 8 -6 22 -25 32 -42z m2431 41 c3 -5 -1 -9 -9 -9 -8 0 -12 4 -9 9 3 4 7
8 9 8 2 0 6 -4 9 -8z m-2084 -82 c17 -22 29 -40 27 -40 -3 0 -20 18 -37 40
-17 22 -29 40 -27 40 3 0 20 -18 37 -40z m1960 26 c0 -3 -4 -8 -10 -11 -5 -3
-10 -1 -10 4 0 6 5 11 10 11 6 0 10 -2 10 -4z m-2269 -43 c13 -16 12 -17 -3
-4 -10 7 -18 15 -18 17 0 8 8 3 21 -13z m429 -118 c13 -14 21 -25 18 -25 -2 0
-15 11 -28 25 -13 14 -21 25 -18 25 2 0 15 -11 28 -25z m-315 -25 c10 -11 16
-20 13 -20 -3 0 -13 9 -23 20 -10 11 -16 20 -13 20 3 0 13 -9 23 -20z m45 -55
c13 -14 21 -25 18 -25 -2 0 -15 11 -28 25 -13 14 -21 25 -18 25 2 0 15 -11 28
-25z m421 -82 c27 -29 28 -32 7 -17 -22 16 -54 54 -45 54 2 0 19 -16 38 -37z
m-341 -8 c13 -14 21 -25 18 -25 -2 0 -15 11 -28 25 -13 14 -21 25 -18 25 2 0
15 -11 28 -25z m90 -100 c19 -19 32 -35 29 -35 -3 0 -20 16 -39 35 -19 19 -32
35 -29 35 3 0 20 -16 39 -35z m431 -52 c13 -16 12 -17 -3 -4 -17 13 -22 21
-14 21 2 0 10 -8 17 -17z m-211 -160 c0 -8 -9 0 -50 45 l-45 47 48 -45 c26
-24 47 -45 47 -47z m400 0 c0 -7 -58 36 -66 49 -4 7 9 -1 29 -16 20 -16 37
-30 37 -33z m-340 -48 c13 -14 21 -25 18 -25 -2 0 -15 11 -28 25 -13 14 -21
25 -18 25 2 0 15 -11 28 -25z m520 -82 c0 -7 -39 17 -46 28 -3 6 5 3 20 -6 14
-10 26 -19 26 -22z m-389 -30 c13 -16 12 -17 -3 -4 -17 13 -22 21 -14 21 2 0
10 -8 17 -17z m40 -30 c13 -16 12 -17 -3 -4 -10 7 -18 15 -18 17 0 8 8 3 21
-13z m40 -30 c13 -16 12 -17 -3 -4 -17 13 -22 21 -14 21 2 0 10 -8 17 -17z
m1296 -195 c-2 -13 -4 -5 -4 17 -1 22 1 32 4 23 2 -10 2 -28 0 -40z m0 -155
c-3 -10 -5 -4 -5 12 0 17 2 24 5 18 2 -7 2 -21 0 -30z"/>
<path d="M2591 5984 c0 -11 3 -14 6 -6 3 7 2 16 -1 19 -3 4 -6 -2 -5 -13z"/>
<path d="M2599 5928 c4 -28 6 -29 9 -9 2 13 0 27 -5 32 -6 6 -7 -3 -4 -23z"/>
<path d="M2621 5791 c-1 -13 -4 -21 -8 -18 -3 4 -12 2 -20 -4 -15 -13 -18 -59
-3 -59 6 0 10 -11 10 -25 0 -14 5 -25 11 -25 6 0 9 -6 6 -14 -3 -7 0 -19 6
-25 8 -8 8 -14 -1 -23 -14 -14 -16 -47 -4 -65 4 -7 19 -14 32 -15 14 -2 29 -7
33 -13 6 -6 7 -4 4 5 -2 8 -10 41 -17 73 -9 40 -16 54 -23 45 -6 -9 -7 -6 -4
10 3 12 1 20 -3 17 -12 -7 -23 13 -14 26 4 8 9 7 16 -2 9 -14 4 31 -12 101 -6
26 -8 29 -9 11z m-24 -63 c-3 -8 -6 -5 -6 6 -1 11 2 17 5 13 3 -3 4 -12 1 -19z
m30 0 c-3 -8 -6 -5 -6 6 -1 11 2 17 5 13 3 -3 4 -12 1 -19z"/>
<path d="M2520 5696 c0 -15 27 -29 34 -18 6 10 -6 26 -21 30 -7 1 -13 -4 -13
-12z"/>
<path d="M2460 5545 c0 -8 5 -15 10 -15 6 0 10 -7 10 -15 0 -8 -6 -14 -12 -12
-9 1 -12 -12 -11 -46 3 -56 17 -87 39 -87 8 0 13 4 9 9 -3 6 4 15 15 21 11 6
20 8 20 5 0 -3 14 10 31 30 18 20 38 34 45 31 8 -3 14 1 14 8 0 27 -12 46 -29
46 -14 0 -14 2 -1 10 12 8 11 10 -7 10 -13 0 -23 5 -23 10 0 6 -5 10 -10 10
-7 0 -7 -6 -1 -19 8 -14 7 -20 -4 -25 -17 -6 -48 21 -40 35 4 5 -8 9 -24 9
-21 0 -31 -5 -31 -15z"/>
<path d="M2494 5314 c3 -9 6 -18 6 -21 0 -3 7 0 15 7 13 11 13 15 3 21 -21 13
-31 10 -24 -7z"/>
<path d="M9647 8393 c-12 -11 -8 -21 13 -26 17 -4 18 -2 9 14 -11 21 -13 22
-22 12z"/>
<path d="M9475 8241 c30 -56 51 -86 40 -56 -4 11 -7 33 -6 48 2 31 -16 54 -41
54 -14 0 -14 -6 7 -46z"/>
<path d="M9771 8142 c-8 -16 -8 -22 -1 -22 6 0 9 -4 6 -9 -5 -8 15 -30 42 -45
19 -11 14 15 -12 58 -23 38 -24 39 -35 18z"/>
<path d="M9586 8055 c-3 -9 9 -45 30 -83 19 -37 33 -59 30 -49 -3 11 0 17 9
17 8 0 15 6 15 13 0 8 11 24 25 37 14 13 25 18 25 12 0 -7 -4 -12 -10 -12 -5
0 -10 -8 -10 -17 0 -15 2 -16 10 -3 7 11 10 11 10 2 0 -10 3 -10 14 0 8 7 10
15 5 16 -5 2 -7 8 -3 13 3 5 0 9 -6 9 -6 0 -9 4 -6 8 2 4 -4 9 -15 9 -11 1
-17 -2 -14 -8 4 -5 -1 -9 -10 -9 -9 0 -13 5 -10 10 3 6 -1 10 -10 10 -9 0 -14
4 -11 9 3 5 -2 11 -12 14 -9 2 -24 8 -33 11 -10 5 -19 1 -23 -9z"/>
<path d="M9790 7940 c-11 -7 -11 -10 -2 -10 8 0 12 -9 10 -22 -2 -18 2 -22 24
-23 15 -1 25 1 23 5 -3 4 2 13 10 20 13 11 14 10 10 -3 -4 -10 1 -17 14 -22
13 -4 19 -11 15 -18 -5 -9 -3 -8 6 0 11 10 11 18 1 39 -9 22 -17 25 -41 22
-17 -3 -30 -1 -30 3 0 5 -7 5 -17 2 -11 -4 -14 -3 -9 5 9 14 6 15 -14 2z"/>
<path d="M9670 7846 c0 -14 49 -116 50 -103 0 9 7 17 15 17 22 0 20 66 -2 75
-18 8 -63 15 -63 11z"/>
<path d="M9916 7823 c-11 -11 -6 -23 9 -23 8 0 15 4 15 9 0 13 -16 22 -24 14z"/>
<path d="M5019 6942 c-97 -130 -356 -478 -575 -772 -485 -650 -478 -640 -466
-640 5 0 16 7 23 16 16 19 343 301 566 487 l151 127 244 2 243 3 3 508 c1 279
-1 507 -5 507 -5 -1 -87 -108 -184 -238z"/>
<path d="M5223 4530 c0 -25 2 -35 4 -22 2 12 2 32 0 45 -2 12 -4 2 -4 -23z"/>
<path d="M5247 4243 c-10 -9 -9 -23 1 -23 5 0 9 7 9 15 0 17 -1 18 -10 8z"/>
</g>
</svg>
